<?xml version="1.0" encoding="utf-8"?>
<!-- Generator: Adobe Illustrator 25.3.1, SVG Export Plug-In . SVG Version: 6.00 Build 0)  -->
<svg version="1.1" id="Layer_1" xmlns="http://www.w3.org/2000/svg" xmlns:xlink="http://www.w3.org/1999/xlink" x="0px" y="0px"
	 viewBox="0 0 121 66" style="enable-background:new 0 0 121 66;" xml:space="preserve">
<style type="text/css">
	.st0{fill:#233B36;}
</style>
<path class="st0" d="M69.1,56.5c-0.2-0.2-0.2-0.4-0.5-0.5c-0.6,0-1.2-0.2-1.4-0.7c0.2-0.4-0.4-0.5-0.2-0.9c-0.3-0.2-0.5-0.6-0.9-0.5
	c0,0-0.2-0.1-0.2-0.2c-0.1-0.3-0.5-0.6-0.3-0.9c0.3-0.2,0-0.5,0.2-0.7c-0.1-0.3-0.1-0.7-0.2-1.1c-0.2-0.5,0.2-1,0-1.6
	c0,0,0-0.1,0.1-0.1c0.2-0.8-0.4-1.3-0.2-2.1c0.2-0.1,0-0.4,0.2-0.4v-0.2c0.3-0.2,0.5-0.6,0.7-0.9c0.2-0.4-0.2-0.5-0.3-0.7
	c-0.4-0.5-0.7-0.9-1-1.4c-0.4,0-0.2-0.5-0.5-0.7c0-0.2-0.2-0.5-0.2-0.8c0.2-0.7,0-1.4,0.1-2c-0.2-0.3,0-0.7,0-1.1
	c0.4-0.5,0-1.1,0.2-1.7c0.1-0.2,0.2-0.4,0.2-0.7c0.1-0.5-0.2-1.2,0-1.8c0.2-0.1,0-0.4,0.2-0.5c0-0.2,0-0.5,0.1-0.6
	c0-0.2-0.2-0.4-0.2-0.6C65,33,64.9,32.9,64.8,33c-0.2-0.3-0.4-0.7-0.2-1c0-0.2,0.1-0.5,0.2-0.7c0-0.5,0.1-1-0.1-1.4
	c-0.4-0.8,0.2-1.5-0.1-2.3c0.2-0.2,0.1-0.5,0.1-0.8c-0.4-0.3,0-0.8-0.3-1.1c0.2-0.6,0-1.3,0-1.8c-0.2-0.5,0-1-0.1-1.4
	c0.1-0.5,0-0.9,0-1.4c0.4-0.4-0.1-0.7,0-1.1c0.2-0.4,0-0.9,0-1.3l0-0.1c0-0.9-0.2-1.8-0.1-2.7c-0.4-0.3,0.2-0.7-0.1-1.1
	c0.1-0.3-0.1-0.6-0.1-0.9c0.3,0,0.4-0.3,0.6-0.5c0.3,0.1,0.5-0.2,0.7-0.4c-0.2-0.3,0.3-0.4,0.2-0.7c-0.4-0.2-0.1-0.6-0.2-1
	c-0.2,0-0.1-0.2-0.1-0.3c0,0-0.1-0.2-0.2-0.1c-0.2-0.2-0.6-0.2-0.7-0.5c-0.7-0.1-0.8-1-1.3-1.5c-0.3,0.2-0.4-0.2-0.6-0.2
	c-0.3-0.4-0.9-0.7-0.8-1.1c0,0-0.1,0-0.1-0.1c-0.1-0.2-0.1-0.4-0.2-0.5c0-0.2,0-0.4,0-0.6c0,0,0.2-0.1,0-0.2c0-0.3,0-0.7,0-1.1
	c0-0.1-0.2-0.1-0.2-0.2c-0.1-0.2,0-0.3,0-0.4c0-0.1-0.4-0.7-0.8-0.7C60.1,3.8,60,4,60,4.2c-0.1,0.1,0,0.2-0.1,0.3
	c-0.1,0.2-0.1,0.7-0.1,1c0,0.2-0.1,0.3-0.1,0.5c0,0.1,0,0.8-0.2,1c0,0.2,0,0.3-0.1,0.5C59.3,7.8,59.2,8,59,8.1
	c0,0.2-0.2,0.3-0.4,0.5c-0.1,0.2-0.2,0.1-0.3,0.2c-0.1,0.1-0.1,0.2-0.1,0.2c0,0-0.1,0-0.1,0.1C58,9.2,58,9.4,57.8,9.5
	c-0.1,0.1-0.2,0.1-0.2,0.2c-0.2,0.2-0.1,0.3-0.4,0.5c0,0-0.1,0.2-0.1,0.2c-0.1,0-0.2,0.1-0.2,0.2c-0.1,0.1-0.2,0.1-0.2,0.2
	c-0.2,0.2-0.3,0.4-0.4,0.6c0,0.1,0.1,0.2-0.1,0.3c0,0,0,0.2-0.1,0.2c-0.1,0.2,0,0.7,0,0.8c0.1,0.2-0.1,0.2,0,0.3
	c0,0.2,0.1,0.1,0.2,0.2c0,0.1,0,0.2,0,0.2c0.1,0.1,0.2,0,0.3,0.4c0,0.1,0.2,0.2,0.4,0.4c0,0,0.2,0.2,0.2,0.3c0,0.2,0,0.3,0.1,0.3
	c0,0.2,0,0.2,0,0.3c0,0.1,0,0.1,0.1,0.2c0,0.1,0,0.2,0.1,0.2c0.1,0,0.1,0.2,0,0.3c-0.2,0.1,0,0.2,0,0.2c0,0.1-0.1,0.2-0.1,0.3
	c0,0,0.1,0.1,0.1,0.2c0,0.1,0,0.4-0.1,0.3c0,0,0,0.4-0.1,0.3c-0.1,0,0,1.2,0,1.4c0,0.1-0.1,0.1-0.1,0.2c0,0.2,0,0.4,0,0.5
	c0,0,0.1,0.1,0.1,0.2c0,0.2,0,0.1-0.1,0.3c0,0,0.1,0,0,0.2c0,0-0.1,0-0.1,0.2c0,0.2,0,0.6,0,0.7c0,0.2,0.2,0.4,0,0.4V23
	c0.2,0.5,0.3,1.1,0.4,1.7c-0.2,0.3-0.2,0.8,0,1.1c-0.4,0.3,0,0.9-0.4,1.3v1.8c0.1,0.1,0.1,0.2,0,0.4c0.3,0.2-0.2,0.3,0,0.6
	c0.2,0.2,0,0.5,0.3,0.6c-0.2,0.4,0,0.7,0,1.1c0.2,0.1-0.2,0.2,0,0.4c0,0.1,0,0.2,0,0.3c0.2,0.5-0.3,0.7-0.2,1.1
	c-0.1,0.4-0.1,0.8,0,1.2c0,0.1,0,0.2-0.1,0.3c0.2,1,0,2,0.2,3.1c-0.3,1.3,0.2,2.7,0.2,4l0.1,0.2c0,0.5-0.1,0.9-0.6,1.3
	c-0.4-0.1-0.2,0.4-0.5,0.5c0,0,0,0.1,0,0.2c-0.2,0.6-0.9,0.8-1.3,1.2V46c0.2,0.2,0.2,0.5,0.4,0.6c0.1,0.2,0.4,0.4,0.3,0.6
	c0.4,0.5,0.2,1.3,0.2,1.9h0c0,0.3,0.1,0.6,0,0.9h0c-0.2,0.6,0.4,0.9,0.2,1.6c0,0.5,0.3,1.1,0,1.7c-0.2,0.8-1,0.5-1.4,1.1
	c-0.1,0.1-0.2,0.3-0.2,0.4c0,0.2,0,0.2,0,0.3c0.1,0.6-0.5,1.1-0.9,1.4c0.1,0.2-0.1,0.3-0.2,0.5c0,0.2,0,0.6,0.2,0.8
	c0,0.4,0.4,0.5,0.5,0.8c0.4-0.2,1.2,0.2,1.4-0.4c0.2,0,0.4-0.1,0.6,0.1c0,0,0-0.1,0-0.1h0.8c0.3,0.4,0.7,0,1.1,0.1
	c0.3,0.2,0.6,0,0.9-0.1c0.2,0.2,0.4,0,0.6,0.1c0.2,0.2,0.4,0.2,0.5,0.4c0.8,0,1.4-0.2,2.1,0c0.1-0.2,0.4-0.1,0.5-0.1
	c0.4-0.2,0.7,0.1,1.1,0c0.1,0,0.2-0.2,0.4-0.1c0.3-0.3,0.8-0.2,1.2-0.1c0.1,0.2,0.4,0.1,0.5,0.3c0.4,0,0.8-0.2,1.3-0.1
	c0.2-0.2,0.5-0.3,0.9-0.2c0.2-0.2,0.8-0.4,0.6-0.8C69.3,57.1,69.2,56.8,69.1,56.5z M62.9,43.8c0,0,0.1,0.2,0.2,0.1
	c0,0.1,0,0.1,0.1,0.1c0.1-0.1,0.3,0,0.5,0c0.2,0.1,0.2,0.3,0.3,0.5c-0.2,0.1-0.3,0.5-0.6,0.4c-0.3,0.2-0.4-0.3-0.7-0.2
	c-0.2-0.1-0.4-0.3-0.5-0.5C62.3,43.7,62.7,43.7,62.9,43.8z M62,43c-0.2-0.2-0.2-0.4,0-0.7c0.2-0.2,0.3-0.3,0.3-0.5
	c0.5-0.1,0.7-1.2,1.3-0.5c0.1,0.5,0.1,1,0,1.4c-0.3,0.3-0.7,0.6-1.1,0.4C62.3,43.2,62.1,43.2,62,43z M63.6,38.9
	c-0.2,0.6-0.6,1-1,1.5c-0.5,0.1-0.6,0.6-1,0.9c-0.3,0.2-0.2,0.5-0.4,0.8c0,0.4-0.4,0.6-0.5,0.9c-0.4,0-0.6,0.7-1.1,0.4
	c-0.4-0.2-0.7-0.5-0.7-0.9c0.1-0.1,0-0.4,0.2-0.5c-0.2-0.3,0.5-0.5,0.4-0.9c1.1-1.1,2.3-2,3-3.4c0.2-0.3,0.5-0.5,0.8-0.9
	c0.2,0,0.4,0,0.5,0.2C63.5,37.8,63.9,38.4,63.6,38.9z M61.4,44.3c0,0.3-0.4,0.2-0.6,0.5c-0.3,0-0.5-0.2-0.8-0.2
	c-0.2-0.1-0.3-0.1-0.4-0.2c-0.2-0.2,0-0.4,0.2-0.5C60.4,44,61.1,43.8,61.4,44.3z M63.4,34.4c0,0.1,0,0.2-0.1,0.3
	c0,0.4-0.2,0.7-0.2,1c-0.5,0.4-0.9,1-1.5,1.4c-0.7,1-1.6,1.8-2.3,2.8c-0.1,0-0.2,0.2-0.4,0.1c-0.2,0-0.2-0.3-0.4-0.5
	c0-0.3-0.1-0.7,0.2-0.9c0-0.6,0.3-1,0.5-1.5c0.1-0.2,0.2-0.6,0.6-0.6c0.6-0.6,1.5-1.2,1.7-2c0.4-0.6,1.1-0.8,1.4-1.4
	c0.3-0.1,0.4,0.2,0.6,0.4C63.6,33.9,63.3,34.1,63.4,34.4z M63.4,30.2c0,0.6-0.7,0.9-0.6,1.5c0,0.2,0,0.2-0.2,0.3h0
	c0,0.5-0.7,0.7-0.8,1.2c-0.7,0.5-1.3,1.2-1.8,1.9l-0.3,0.2c0.1,0.2-0.2,0.4-0.4,0.5c-0.2,0-0.3,0.2-0.4,0.1
	c-0.3-0.3-0.4-0.8-0.3-1.2c0.4-0.2,0.2-0.8,0.6-1.1c0.3-0.9,1.1-1.6,1.9-2.2c0-0.2,0.4-0.4,0.4-0.7c0.2-0.2,0.5-0.2,0.5-0.6
	c0.6-0.3,0.3-1.3,1-1.5c0.3,0.2,0.6,0.3,0.6,0.7C63.6,29.7,63.3,29.9,63.4,30.2z M63.1,26.1c0,0.3,0,0.7-0.2,0.9
	c-0.3,0.2-0.2,0.6-0.5,0.9V28c-0.3,0.5-1,0.7-1,1.4c-0.5,0.4-0.8,1.1-1.1,1.6c-0.4,0.2-0.6,0.9-1,0.6c-0.2-0.1-0.4,0-0.5-0.2
	c0.1-0.3,0-0.6,0-1c-0.1-0.5,0.4-0.7,0.5-1.1c0.5-0.6,0.8-1.4,1.3-1.9c0.4-0.5,1-0.8,1.3-1.5c0.2-0.2,0.3-0.5,0.5-0.7
	c0-0.2,0.2-0.3,0.3-0.5c0.2,0,0.4,0,0.6-0.1l0.4,0.5C63.3,25.4,63.4,25.8,63.1,26.1z M63.2,20.6c-0.1,0.5,0.2,0.9-0.1,1.2
	c0.2,0.4-0.2,0.6-0.2,1c-0.2,0.3-0.4,0.6-0.6,0.9c-0.7,1-1.6,1.8-2.3,2.9c-0.2,0-0.3,0.2-0.4,0.3c-0.2,0.4-0.2,0.8-0.6,1
	c-0.2,0.1-0.3-0.1-0.4-0.2c-0.4-0.2,0-0.5,0-0.8c0.2-0.5-0.1-1,0.2-1.4c0-0.2,0-0.2,0-0.4c0.6-0.4,0.6-1.1,1.1-1.6l1.5-1.6
	c0.2,0,0.2-0.3,0.4-0.5c0.1-0.4,0.3-0.8,0.6-1.1C62.8,20.3,63.2,20.3,63.2,20.6z M63,16.7c0.2,0.5,0,1.1,0,1.6
	c-0.7,1.1-1.8,2-2.5,3.2c-0.6,0.4-0.9,1-1.5,1.6c-0.3,0-0.6,0-0.7-0.3c0.1-0.3-0.2-0.8,0-1.1c0-0.4,0.4-0.7,0.5-1.1
	c0.1-0.4,0.7-0.3,0.5-0.8c0.4-0.3,0.7-0.8,1.2-1.1v-0.1c0.7-0.5,0.6-1.4,1.4-1.7c0.2-0.3,0.3-0.3,0.5-0.6C62.8,16.3,63,16.5,63,16.7
	z M62.9,13.8c0.2,0.3-0.2,0.5-0.2,0.9c-0.6,0.8-1.3,1.5-2,2.3c-0.4,0.1-0.3,0.4-0.4,0.7c-0.3,0.5-0.8,0.7-1,1.2l0,0
	c-0.2,0.1-0.3,0.5-0.7,0.3c-0.4-0.3-0.2-0.8-0.2-1.2c0.2-0.2-0.2-0.5,0-0.7c0.3-0.5,0.6-1.1,1.2-1.4c0.3-0.9,1.1-1.5,1.7-2.3l0,0
	c0.2,0,0.2-0.3,0.3-0.4c0,0,0.1,0.1,0.2,0.2c0.2,0,0.3-0.2,0.5-0.1C62.6,13.4,62.9,13.5,62.9,13.8z M59,9.5c0.5-0.2,0.8-0.7,1.3-0.7
	c0.2,0,0.4,0.1,0.6,0.1c0.3,0.4,0.8,0.1,1.1,0.4c0.2,0.2,0.6,0.2,0.5,0.5c0.3,0.2,0.2,0.4,0.2,0.7c-0.2,0.4-0.5,0.3-0.9,0.3
	c-0.2-0.1-0.4-0.4-0.6-0.2c-0.3,0.1-0.7,0.2-1,0.1c-0.3,0.2-0.6-0.2-0.9,0c-0.2-0.1-0.5-0.1-0.6-0.4C58.6,10,58.9,9.7,59,9.5z
	 M59.3,13h-0.1c0-0.1,0.1-0.2,0.2-0.1C59.4,12.9,59.4,13,59.3,13z M58.4,13.7l0.4-0.4c0.4,0.1,0.6-0.1,0.9,0.3
	c0.1,0,0.2,0.1,0.2,0.1c-0.3,0.4-0.5,1.3-1.3,1.1c-0.2,0-0.3-0.1-0.4-0.2C58.2,14.4,58.1,14,58.4,13.7z M57.9,45
	c0,0.1-0.2,0.1-0.2,0H57.9z M57.5,52.2c0.1-0.4,0-0.9,0.1-1.4c-0.2-0.2,0.2-0.4,0-0.6c0.1-0.9-0.1-1.9,0-2.8
	c0.1-0.2,0.2-0.5,0.4-0.7c0.6-0.1,1.1,0.2,1.8,0c0.3-0.3,0.8-0.2,1-0.4l0.2,0.1c0.5,0,1.1-0.2,1.5,0.4c0.6,0.1,1.2-0.1,1.9-0.1
	c0,0.1,0,0.1,0,0.1c0.4,0,0.3,0.4,0.5,0.6c-0.2,0.2,0,0.5-0.3,0.5c0.3,0.4,0,1.1,0.2,1.7c0.1,0.8,0,1.6,0,2.3
	c-0.2,0.2,0.1,0.5,0,0.8c0,0.1,0,0.2,0,0.4c0,0.2-0.2,0.4-0.3,0.6c-0.3,0.2-0.9,0.1-1.4,0.1c-0.3,0-0.8,0-1.1,0.1
	c-0.5-0.2-1,0-1.5-0.2c-0.3,0.2-0.5,0-0.8,0.1c-0.3-0.1-0.7,0-1,0.1c-0.2,0-0.4,0.1-0.6,0.1C57.1,53.8,57.6,52.8,57.5,52.2z
	 M56.1,55.7c-0.4-0.2-0.1-0.5-0.2-0.8c0.3-0.2,0.8,0,1.3-0.2c0.1-0.3,0.5-0.1,0.6-0.2c0.7-0.1,1.3,0,2-0.1c0.3,0.2,0.6-0.1,0.9,0
	c0.2,0,0.5-0.1,0.6,0.1l1-0.1c0.5-0.1,1,0.4,1.5,0.1c0.2,0,0.6-0.2,0.8,0.2c0.2-0.1,0.3-0.1,0.5-0.1c0.2,0.1,0.4,0.2,0.7,0.3
	c0.3,0.2-0.1,0.4,0,0.7c-0.3,0.2-0.8-0.1-1,0.2c-0.3-0.1-0.8,0-1,0c-0.2-0.2-0.6,0-0.8,0c-0.1,0.1-0.2,0-0.3,0
	c-0.3-0.2-0.8-0.2-1.1,0c-0.4-0.3-0.7,0.1-1.1-0.1c-0.6-0.1-1.1,0.2-1.7,0c-0.7,0-1.5,0.3-2.1,0C56.4,55.9,56.2,55.8,56.1,55.7z
	 M65.9,57.4c-0.1,0-0.2,0-0.4,0c-0.3-0.6-1-0.2-1.6-0.3c-0.5,0.4-1.1,0.2-1.7,0.3c-0.4-0.3-0.7,0.2-1.1,0c-0.7,0.1-1.3-0.1-1.9,0
	c-0.4,0-1-0.2-1.5,0c-0.3-0.2-0.8,0-0.9-0.5c0.3-0.5,0.9-0.2,1.4-0.3c0.3,0,0.7,0.2,1,0.1c0.1,0.1,0.2,0.1,0.3,0
	c0.2-0.2,0.4-0.1,0.6-0.2c0.2,0.2,0.5,0.1,0.7,0.1c0,0,0,0,0.1,0.1c0.3,0,0.4-0.2,0.7-0.2c0.6,0.2,1,0.2,1.7,0
	c0.3,0.5,0.8,0,1.2,0.1c0.4,0.2,0.8,0,1.3,0c0.2,0,0.4,0,0.4,0.2C66.1,57.1,66,57.2,65.9,57.4z"/>
<path class="st0" d="M88.1,41.1c-0.1-0.1-0.2-0.3-0.2-0.4c-0.1-0.1-0.1-0.2-0.3-0.4c0-0.4-0.5-0.6-0.6-0.9c-0.2-0.1,0.1-0.2-0.1-0.2
	c0-0.4-0.4-0.7-0.4-1.1c-0.2,0,0-0.2-0.2-0.4c0.2-0.8-0.6-1.1-0.7-1.8c-0.6-0.4-0.5-1.1-0.7-1.5c-0.2-0.2-0.2-0.6-0.5-0.7
	c-0.2-0.5-0.3-0.9-0.4-1.4c-0.3-0.6-0.6-1-0.9-1.6c0-0.1,0-0.2-0.1-0.3c0-0.2,0-0.4-0.2-0.5c0-0.4-0.1-0.7-0.3-0.9
	c0.1-0.5-0.5-0.4-0.5-0.8c-0.4-0.1-0.2-0.6-0.5-0.7c-0.4,0-0.7-0.1-1-0.4l-1,0c-0.5,0-0.9,0.2-1.3,0.7c0,0.1-0.1,0.2-0.2,0.2
	c-0.3,0.2-0.4,0.6-0.5,0.9c-0.1,0.1-0.2,0.3-0.2,0.4v0.4c-0.4,0.1,0,0.4-0.2,0.5c0,0.5-0.4,0.9-0.4,1.4c0.1,0-0.4,0.7-0.4,0.7
	c0,0.4-0.4,0.6-0.4,1c-0.2,0.2-0.3,0.6-0.2,0.9c-0.2,0.4-0.3,0.8-0.4,1.2c0,0.5-0.6,0.8-0.5,1.3c0,0.1-0.1,0.3-0.2,0.4
	c0.1,0.3-0.2,0.4-0.2,0.6c0,0.6-0.5,0.8-0.5,1.4c-0.1,0.2-0.2,0.4-0.3,0.7c0.2,0.4-0.5,0.5-0.3,0.9c-0.4,0.1,0,0.5-0.3,0.6
	c0,0.4-0.1,0.9,0.2,1.1c0.1,0.5,0.6,0.4,1,0.5c0.3,0,0.6,0.2,0.8,0c0.4,0.1,0.5-0.4,0.8-0.2c0.4-0.1,0.4-0.6,0.4-0.9h0l0-0.7h0
	c0.1-0.1-0.1-0.2,0.1-0.2c0-0.5,0.3-0.7,0.3-1.2c0.4-0.3,0.2-0.7,0.6-1.1c-0.1-0.2,0.1-0.4,0.2-0.5c0.7-0.2,0.2-0.6,1.5-0.5
	c0.1,0,0.2,0,0.4,0c0.1,0.2,0.7,0,0.8,0.2c0.2,0,0.4,0.1,0.5-0.1c0.2,0,0.3,0,0.4,0.1c0.4,0.1,0.8-0.2,1.2,0.1
	c0.3,0.5,0.9,0.7,1,1.4c0,0.4,0.3,0.7,0.3,1.1c0.3,0.4,0.2,0.9,0.6,1.2c-0.1,0.2,0.2,0.2,0.2,0.4c0.3,1.2,1.6,0.6,2.5,0.9
	c0.3,0.1,0.3,0,0.5-0.1C88.2,42.1,88,41.5,88.1,41.1z M85.6,40.8c-0.6-0.2-0.4-0.8-0.8-1.1c0-0.4-0.6-0.4-0.4-0.8
	c-0.3-0.5-0.4-0.8-0.6-1.4c0.2-0.4-0.4-0.5-0.3-0.8c-0.2-0.2-0.2-0.3-0.5-0.5c-0.6,0.1-1.3,0.1-1.9,0.2c-0.3,0.1-0.7-0.3-0.9,0
	c-0.3-0.2-0.7,0.1-1.1,0c-0.2-0.2-0.8-0.2-1.2-0.3c-0.2,0.2-0.4-0.2-0.6,0c0.2,0.5-0.4,0.6-0.5,0.9c0,0.2-0.3,0.3-0.2,0.6
	c-0.4,0.4-0.4,1-0.5,1.4c-0.2,0.2-0.1,0.3-0.2,0.5c-0.2,0.2-0.4,0.6-0.6,0.8c0,0.1,0,0.2-0.1,0.2c-0.2,0-0.4-0.1-0.4,0.1
	c-0.2-0.1-0.2-0.4-0.2-0.6c0.1-0.4,0.2-0.7,0.5-0.9c0.1-0.3,0-0.5,0.2-0.8c0.6-0.7,0.4-1.8,1.1-2.6c0-0.2,0.2-0.4,0.1-0.6
	c0.3-0.4,0.5-1,0.4-1.5c0.2-0.2,0.4-0.4,0.4-0.7l0.1-0.1c0-0.2,0.2-0.4,0.2-0.6c-0.1-1.1,0.7-1.6,0.9-2.6c0.5-0.4,0.1-1,0.7-1.3
	c0.6,0.2,1.4-0.8,1.7,0.2c-0.2,0.5,0.4,0.5,0.3,0.9c0.2,0.2,0.6,0.5,0.5,0.8c0.2,0.2,0.1,0.5,0.4,0.6c0.1,0.2,0.4,0.4,0.4,0.7
	c0.6,0.3,0.2,1,0.7,1.4c-0.1,0.2,0.2,0.4,0.1,0.7c0.3,0.5,0.4,1.1,0.8,1.5v0.1c0,0-0.1,0-0.1,0c0,0.2,0.3,0.2,0.3,0.5
	c-0.1,0.3,0.4,0.5,0.2,0.8l0,0.1c0.4,0.2,0.3,0.6,0.6,0.9c0,0.6,0.7,0.9,0.7,1.5c0.3,0.5,0.4,0.9,0.5,1.4
	C86.1,40.7,85.9,40.9,85.6,40.8z"/>
<path class="st0" d="M36.9,27.7c-0.5-0.4-1-0.2-1.6-0.1c-0.3,0.4-0.7,0.2-0.9,0.7c-0.2,0.5-0.7,0.8-0.7,1.4
	c-0.4,0.5-0.5,1.1-0.6,1.6c-0.2,0.2-0.3,0.5-0.4,0.8c-0.4,0.2-0.2,0.6-0.5,0.9c-0.2,0.5-0.4,0.9-0.7,1.3c0.2,0.6-0.5,0.8-0.2,1.4
	c-0.2,0.2-0.1,0.7-0.3,0.9c-0.2,0.4-0.4,0.8-0.7,1.2c-0.3,0-0.6,0.1-0.7-0.2c-0.1-0.5-0.7-0.9-0.6-1.4c-0.3-0.2-0.1-0.7-0.4-1
	c-0.1-0.2-0.2-0.6-0.3-0.8c0.2-0.3-0.4-0.4-0.2-0.7c-0.2-0.2-0.2-0.5-0.3-0.7c0-0.4-0.6-0.6-0.5-1.1c-0.2-0.2-0.2-0.4-0.2-0.7
	c-0.5-0.5-0.4-1.4-0.9-1.8l0,0l-0.1-0.1c0.1-0.2-0.2-0.4-0.2-0.7c-0.4-0.4-0.4-0.8-1-1.1c0-0.4-0.3-0.1-0.5-0.4
	c-0.2,0.1-0.2-0.2-0.4-0.1c-0.4,0.2-1.1,0.2-1.3,0.8c-0.2,0.3-0.1,0.7,0.1,1c0,0.2,0.1,0.6,0.2,0.8c0.5,0,0.1,0.6,0.5,0.7
	c0.2,0.3,0,0.7,0.4,0.9c-0.2,0.6,0.4,0.9,0.4,1.4c0.1,0.2,0.3,0.5,0.3,0.7c0.2,0.4,0.5,0.8,0.5,1.2c0.4,0.4,0.4,0.8,0.7,1.2
	c0.2,0.5,0.1,1.1,0.6,1.4c-0.2,0.5,0.3,0.7,0.5,1.1c-0.1,0.1,0.1,0.2,0.1,0.3c0.1,0.3,0.3,0.7,0.4,1c0,0.4,0.4,0.6,0.4,0.9
	c0,0.5,0.6,0.9,0.5,1.5c0.4,0.5,0.9,0.7,1.4,0.9c0.6,0,1.4,0.2,1.6-0.5c0.6-0.2,0.4-0.9,0.8-1.3c0.1-0.1,0-0.4,0.1-0.4
	c0.1-0.1,0-0.5,0.2-0.6c0.2-0.4,0.1-1,0.5-1.3c-0.2-0.4,0.3-0.5,0.2-0.8c0.5-0.2,0.1-0.9,0.6-1.2c0-0.3,0.4-0.4,0.3-0.8h0
	c-0.1-0.2,0.2-0.4,0.2-0.7c0-0.4,0.4-0.5,0.5-0.9c0-0.2-0.2-0.2-0.1-0.4c0.4-0.2,0.4-0.6,0.5-0.9c0,0,0.1-0.2,0.2-0.1v-0.2
	c0.6-0.3,0.4-0.9,0.6-1.4c0.2-0.4,0.4-0.8,0.6-1.2c0-0.2,0.2-0.5,0.4-0.7c0-0.2,0.1-0.4,0.2-0.6C37.1,28.5,37.3,28,36.9,27.7z
	 M34.6,34.4c0,0-0.2-0.2,0-0.2h0V34.4z M34.8,31C34.8,30.9,34.8,30.9,34.8,31L34.8,31c0,0.5-0.3,1-0.5,1.5c-0.4,0.5-0.5,1.2-0.5,1.8
	c-0.2,0.6-0.7,1.1-1,1.5c-0.2,0.5-0.1,1-0.4,1.4c-0.2,0.2-0.2,0.6-0.3,0.9c0.2,0.4-0.4,0.4-0.2,0.7c-0.2,0-0.4,0.2-0.5,0.4
	c0,0.3-0.3,0.5-0.2,0.7c-0.1,0.6-0.3,1.1-0.8,1.5c-0.6,0-1.3,0.1-1.6-0.6c-0.1-0.2-0.1-0.6-0.4-0.8c-0.1-0.7-0.6-1.3-0.6-2
	c-0.1-0.4-0.5-0.7-0.4-1.1c-0.3-0.5-0.4-0.9-0.8-1.4c-0.2-0.5-0.5-1-0.6-1.6c0-0.3-0.2-0.6-0.3-0.9c-0.2-0.3-0.2-0.7-0.4-1.1
	c-0.3-0.2,0.1-0.7-0.4-0.8c-0.1-0.3-0.1-0.8-0.4-1.1c-0.1-0.2-0.2-0.5-0.3-0.8c0.4-0.4,0.6,0.1,0.8,0.4c0,0.4,0.6,0.7,0.3,1.1
	c0.3,0.1,0,0.2,0,0.5c0.5,0.1,0.2,0.6,0.5,0.9c0.3,0.3,0.3,0.7,0.5,1c0.1,0.5,0.3,0.9,0.6,1.4c0,0.5,0.6,0.6,0.4,1.1
	c0.1,0.3,0.1,0.7,0.4,0.9c0,0.3,0.3,0.5,0.4,0.8c-0.1,0.6,0.6,0.6,0.4,1.2c0.5,0.2,0.2,0.7,0.6,0.9c-0.1,0.3,0.3,0.4,0.5,0.6
	c0.3,0,0.6-0.2,0.7-0.5c0-0.5,0.8-0.7,0.6-1.2c0.4-0.2,0-1,0.5-1.3c0.2-0.3,0.2-0.7,0.4-0.9c-0.1-0.2,0.2-0.2,0.3-0.5
	c0-0.4,0.4-0.6,0.3-0.9c0.1-0.7,0.8-1.2,1-1.9c0-0.2,0.1-0.5,0-0.8c0.2-0.2,0.2-0.6,0.4-0.9c0.3-0.2,0.2-0.7,0.4-0.9
	c0.3-0.1,0.2-0.7,0.6-0.4c0,0.2,0,0.5,0.2,0.7C35.1,30.5,35.1,30.9,34.8,31z"/>
<path class="st0" d="M46.8,29c-0.1-0.3-0.5-0.4-0.6-0.7c-0.4,0-0.6-0.5-0.9-0.6c-0.2-0.1-0.4,0-0.5,0c-0.2-0.1-0.4-0.2-0.5-0.4
	c-0.2,0-0.6-0.1-0.8,0.1c-0.5-0.1-0.9,0.1-1.3,0.4c-0.3-0.1-0.4,0.2-0.6,0.4c-0.4,0.1-0.7,0.4-1.1,0.5c-0.4,0.6-1,1-1,1.7
	c-0.4,0.2-0.2,0.7-0.4,1c-0.3,0.5-0.4,1-0.5,1.6c0,0.2,0,0.6-0.2,0.8c0,0.5,0.2,1,0,1.4c0.2,1.1-0.2,2.3,0.4,3.3
	c0,0.2,0,0.4,0.2,0.5c0,0.6,0.2,1.2,0.8,1.6c0,0.4,0.5,0.4,0.4,0.8c0,0,0.1,0.2,0.2,0.2c0,0.1,0.2,0.1,0.2,0.2
	c0,0.2,0.2,0.1,0.3,0.1c0.2,0.2,0.4,0.2,0.6,0.4c0.4,0,0.6,0.2,1,0.3c0.2,0.2,0.5,0,0.7,0.3c0.3-0.1,0.7,0.2,1.1,0
	c0.2-0.5,0.9-0.2,1.3-0.3c0.2-0.2,0.4,0,0.6-0.3c0.3-0.2,0.6-0.5,1-0.7c0.5-0.2,0.6-0.7,0.9-1c0.4-0.5,0-1,0.1-1.6
	c-0.2-0.2,0-0.7-0.3-0.9c-0.1-0.1-0.2-0.3-0.4-0.2c-0.4-0.2-0.9,0-1.4,0c-0.3,0.2-0.3,0.5-0.4,0.8c-0.1,0.2-0.3,0.2-0.3,0.4
	c-0.3,0.6-1,0.7-1.6,0.6c-0.2-0.1-0.3,0.2-0.4,0H43c-0.4-0.1-0.8-0.3-0.9-0.7c-0.3-0.2-0.1-0.6-0.5-0.8c0.1-0.2-0.1-0.2-0.2-0.4
	c0-0.7-0.4-1.4-0.2-2c-0.2-0.3,0.1-0.5-0.1-0.8c0.1-0.5-0.1-1.1,0.1-1.6c0.2-0.2,0-0.5,0.2-0.5c0.1-0.5,0.4-0.9,0.8-1.1
	c0.5,0,0.7-0.8,1.3-0.6c0.4-0.2,1.1,0,1.5,0.2c0.3-0.1,0.4,0.3,0.6,0.4c0.3,0.5,0.8,1.1,1.5,1c0.2-0.2,0.4-0.2,0.5-0.3
	c0.4,0,0.4-0.5,0.7-0.7c0.2-0.7-0.2-1.2-0.4-1.8C47.5,29.6,47.2,29.4,46.8,29z M46.7,30.9c-0.2,0-0.4,0.5-0.6,0.2
	c-0.4-0.3-0.8-0.9-1.4-0.8c-0.2-0.3-0.6-0.1-0.9-0.4c-0.4,0.2-0.8,0-1,0.3c-0.4,0.1-0.7,0.5-1.2,0.6c-0.4,0.2-0.2,0.6-0.6,0.7
	c-0.2,0.4-0.6,0.7-0.5,1.2c0,0.1,0,0.2-0.2,0.2c0,1-0.3,2,0,3c-0.2,0.2,0.1,0.4,0,0.6c-0.1,0.3,0,0.7-0.2,1c0.3,0.6,0.2,1.3,0.8,1.7
	c0,0.2,0.2,0.2,0.3,0.4l0.2,0c0,0.3,0.3,0.6,0.6,0.7c0.3,0,0.5,0.1,0.8,0.2c0.4-0.2,0.7,0.4,1.3,0.2c0,0.2,0.2,0,0.3,0.1
	c0.3,0,0.6-0.2,0.8-0.4c0.4-0.2,0.6-0.5,0.8-0.8c0.2,0,0.4-0.1,0.5,0.1c0.1,0,0.1,0.2,0.1,0.3c-0.4,0.8-1.1,0.8-1.6,1.4
	c-0.5,0.3-1.1,0.2-1.7,0.2c-0.2-0.3-0.6-0.2-0.8-0.4c-0.1-0.2-0.4,0-0.6-0.2c-0.6,0-1.3-0.6-1.5-1.1c-0.4-0.2-0.1-0.6-0.4-0.7
	c0-0.3-0.2-0.6-0.2-0.9c-0.3-0.2-0.2-0.7-0.4-1c0.2-0.2-0.3-0.3-0.1-0.5c-0.3-0.1,0-0.5-0.2-0.7c0.1-0.6,0.2-1.3,0.2-1.9
	c-0.2-0.7,0.3-1.1,0.2-1.8c0.2-0.7,0.6-1.4,1-2c0.3-0.2,0.3-0.8,0.8-0.7c0.2,0,0.4-0.2,0.6-0.4c0.3-0.2,0.6-0.2,0.9-0.2
	c0.3-0.1,0.7,0,1-0.2c0.4,0.1,0.7,0.2,1,0.4C45.9,29.6,46.8,30,46.7,30.9z"/>
<path class="st0" d="M81.9,33.5c0.2-0.2-0.1-0.4-0.2-0.5c0.1-0.3-0.3-0.4-0.3-0.7c-0.2-0.4-0.2-0.9-0.5-1.1c0-0.3-0.2-0.5-0.2-0.8
	c-0.2,0-0.3-0.2-0.6-0.2c-0.4-0.2-0.3,0.4-0.6,0.3l-0.1,0.1c-0.3,0.3-0.4,0.7-0.4,1.1c-0.4,0-0.1,0.6-0.4,0.7c0,0.2-0.2,0.4-0.1,0.6
	c-0.4,0.2,0,0.7-0.4,0.9c0,0.2,0.1,0.2,0.2,0.2c-0.2,0.1-0.2,0.2-0.3,0.4c0.1,0.3-0.2,0.5-0.2,0.8c0.1,0.2,0.5,0.2,0.7,0.2
	c0.4,0.2,1,0.1,1.3,0c0.2,0,0.4,0.1,0.4-0.1c0,0,0.1,0,0.1,0c0,0.1,0.2,0,0.1,0c0,0,0.3,0.2,0.7,0.1c0.5-0.1,1.1,0.1,1.7-0.2
	c0.2-0.3-0.2-0.6-0.1-0.9C82.2,34.1,82.3,33.7,81.9,33.5z M81,34.6c-0.2-0.1-0.2,0.2-0.4,0.2c-0.3,0-0.6,0.2-0.9-0.1
	c-0.2,0-0.3,0-0.4-0.1c0.1-0.2-0.2-0.4-0.3-0.5c0.4-0.3,0.3-0.8,0.7-1.1c0-0.4,0-0.8,0.3-1c0.2,0,0.2-0.1,0.4,0
	c0.3,0.2,0.3,0.7,0.6,0.9c0.1,0.3,0.2,0.5,0.3,0.9C81.3,34.1,81.1,34.4,81,34.6z"/>
<path class="st0" d="M119.4,31.2L61.8,0.3C61.4,0.1,60.9,0,60.5,0c-0.5,0-0.9,0.1-1.3,0.3L1.6,31.2c-1.5,0.8-1.5,2.9,0,3.6
	l57.6,30.9c0.4,0.2,0.8,0.3,1.3,0.3c0.5,0,0.9-0.1,1.3-0.3l57.5-30.9C120.9,34,120.9,31.9,119.4,31.2z M118.6,33.4L61,64.2
	c-0.2,0.1-0.4,0.1-0.6,0.1c-0.2,0-0.4,0-0.6-0.1L2.3,33.4c-0.2-0.1-0.2-0.2-0.2-0.4s0-0.3,0.2-0.4L59.9,1.8c0.2-0.1,0.4-0.1,0.6-0.1
	s0.4,0,0.6,0.1l57.6,30.9c0.2,0.1,0.2,0.2,0.2,0.4C118.9,33.1,118.8,33.2,118.6,33.4z"/>
</svg>
