<?xml version="1.0" encoding="utf-8"?>
<!-- Generator: Adobe Illustrator 23.0.6, SVG Export Plug-In . SVG Version: 6.00 Build 0)  -->
<svg version="1.1" id="Layer_1" xmlns="http://www.w3.org/2000/svg" xmlns:xlink="http://www.w3.org/1999/xlink" x="0px" y="0px"
	 viewBox="0 0 340.9 41.4" style="enable-background:new 0 0 340.9 41.4;" xml:space="preserve">
<style type="text/css">
	.st0{fill:#F3F4E6;}
</style>
<title>Fichier 1</title>
<g id="Calque_2">
	<g id="Calque_1-2">
		<path id="VCA_logo_75_of_the_initial_size_dektop_version_" class="st0" d="M106.3,21.1v6.4c0,0.2-5.5,2.9-9.8,2.9
			c-3.6,0-7.1-1.4-9.6-4c-3-2.9-4.7-6.9-4.7-11.1c0-8,6.1-15.1,14.2-15.3h0.4c3,0,5.9,1.1,8.2,3.2c0.4,0.2,0.6,0.6,0.7,1v2.9h-0.3
			c0,0,0-0.1,0-0.1c-0.6-2.3-2.1-4.2-4.1-5.3c-1.2-0.6-2.5-0.9-3.9-1C89,0.2,86.9,10.1,86.9,15.3c0,6.1,4.1,14.2,10.3,14.2
			c5,0,7.3-3.9,8.3-6.5c0.2-0.6,0.4-1.3,0.5-1.9L106.3,21.1L106.3,21.1z M117,29.2V0.7h-5.9v0.2c0.3,0,2.4,0.4,2.4,1.8v26.4
			c0,0.5-0.4,0.9-0.9,0.9c0,0,0,0,0,0l0,0v0.3h5.3v-0.3C117.4,30.1,117,29.7,117,29.2C117,29.3,117,29.3,117,29.2
			C117,29.3,117,29.3,117,29.2 M322.1,29.2V0.7h-5.9v0.2c0.2,0,2.4,0.4,2.4,1.8v26.4c0,0.5-0.4,0.9-0.9,0.9c0,0,0,0,0,0l0,0v0.3h5.3
			v-0.3C322.5,30.1,322.1,29.8,322.1,29.2C322.1,29.3,322.1,29.3,322.1,29.2C322.1,29.3,322.1,29.3,322.1,29.2 M23.7,1v0.3
			c1.2,0,1.7,0.8,1.4,1.6L16.7,25L8.5,3.5c-0.6-1.6,0.5-2.2,1.8-2.2V1H0v0.3c1.9-0.1,3.6,1,4.3,2.8l10,26.3h1L25.7,3.2
			c0.5-1.1,1.5-1.8,2.8-1.9V1H23.7z M334.4,30.4c4.1,0,6.5-2.8,6.5-5.8c0-2.5-1.8-4-4.4-4.8l-3-1c-2.4-0.7-3.6-1.5-3.6-3.2
			c0-2,1.5-3.2,4.1-3.2c2.8,0,3.8,2.2,4.6,4.6h0.2v-3.4c-1.3-1.1-3-1.7-4.8-1.8c-3.4,0-5.9,2.3-5.9,5.4c0,3.6,2.4,4.4,4,5l3.2,1.1
			c1.4,0.5,2.7,1.1,2.7,3.2c0.1,1.7-1.1,3.2-2.8,3.4c-0.2,0-0.3,0-0.5,0c-4.1,0-5.7-3.2-6.5-5.7H328v3.9
			C329.8,29.4,332.1,30.3,334.4,30.4 M250.7,28.4c0.5,1,1.5,1.7,2.6,1.8v0.3H245v-0.3c0.4,0,1.8-0.4,1.3-1.7l-3.4-9.1h-9.9l-3.6,9.5
			c-0.4,1.1,0.9,1.4,1.2,1.4v0.3h-4v-0.3c0.9,0,1.7-0.4,2.1-1.2l0,0l10.5-28h1L250.7,28.4L250.7,28.4 M237.9,6.3l-4.4,11.6h8.8
			L237.9,6.3z M267,11.8c-3.5,0-4.9,3-5.4,4.6h-0.1v-4.1h-4.3v0.2c0.4,0,0.8,0.4,0.9,0.8v16.1c-0.1,0.4-0.4,0.7-0.9,0.7v0.3h5.3
			v-0.3c-0.4,0-0.8-0.2-0.9-0.6v-9.6c0-4.5,2.6-7.2,4.3-7.2c0.9,0,1.4,0.6,1.4,1.7v1.9c0,0.7,0.5,1.2,1.7,1.2c1,0,1.6-0.5,1.6-1.2
			C270.6,13.1,269.5,11.8,267,11.8 M46,29.4c-0.9,0.7-2,1-3.1,1c-2.6,0-3.6-1.2-4-3.2v-0.1v0.2c-1.5,1.9-3.8,3-6.3,3
			c-2.6,0-4.5-1.4-4.5-4.2c0-5.1,6.9-6.2,10.8-6H39c0-1.4,0-2.8,0-3.7c0-2.6-0.7-4.2-3.4-4.2c-1.8,0-3.8,0.5-3.8,2.5v1.9
			c0,0.8-0.7,1.4-1.5,1.4c0,0,0,0,0,0h-0.1c-1.8,0-1.8-0.8-1.8-1.8c0-2.4,3-4.5,7.1-4.5c5,0,6.8,2.7,6.8,5.6v9.9
			c0,1.5,0.5,2,1.4,2.1c0.7,0.1,1.4,0,2-0.3L46,29.4z M38.7,26.2c0.1-0.4,0.2-0.9,0.3-1.4c0-0.5,0-1.1,0-1.7c0-0.1,0-0.2,0-0.2v-2.1
			c-2.7,0-7.4,0.5-7.4,4c-0.2,2,1.3,3.7,3.3,3.9c0,0,0,0,0,0h0.5C36.9,28.6,38.2,27.6,38.7,26.2 M66.9,29.1V17.3
			c0-3.8-2.5-5.5-6.1-5.5c-0.3,0-0.5,0-0.8,0h-0.2c-0.2,0-0.3,0-0.5,0.1h-0.2c-0.2,0-0.3,0.1-0.5,0.1c-0.1,0-0.1,0-0.2,0
			c-0.2,0.1-0.4,0.1-0.5,0.2h-0.1c-0.7,0.3-1.4,0.8-2,1.3l0,0c-0.1,0.1-0.3,0.2-0.4,0.4c0,0,0,0,0,0.1c-0.3,0.3-0.6,0.7-0.8,1.1
			l-0.1,0.1c-0.1,0.1-0.1,0.2-0.2,0.3v-3.1h-4.9v0.2c0.4,0,0.8,0.3,0.8,0.8v16c-0.1,0.4-0.4,0.8-0.8,0.8v0.3h5.2v-0.3
			c-0.5-0.1-0.8-0.5-0.8-0.9V20c0-0.3,0-0.6,0-0.9c0-0.1,0-0.2,0-0.3c0-0.2,0.1-0.4,0.1-0.6s0-0.1,0.1-0.3c0.5-2.8,2.9-4.9,5.8-5.1
			h0.1c2.5,0,3.2,0.8,3.4,3.4c0,0.5,0.1,1,0.1,1.5v11.4c0,0.5-0.4,0.9-0.9,0.9v0.3h5.3v-0.3C67.2,30.1,66.8,29.7,66.9,29.1
			C66.8,29.2,66.8,29.2,66.9,29.1L66.9,29.1 M174.3,0.1c-2.4,0.2-4.6,1.4-6,3.3c-1,1.4-1.8,3-1.8,6.8v1c-0.2,0.9-1.1,2.1-2,2.1
			c0.7,0,1.4-0.2,2-0.5v16.7c-0.1,0.4-0.4,0.7-0.8,0.7v0.2h5.2v-0.2c-0.4,0-0.7-0.3-0.8-0.7V13.5h4v-1.1h-4V6.7c0-4.2,1.9-6,4.1-6
			c1,0,2.3,0.4,2.3,1.9v2.1c0,0.7,0.5,1.1,1.7,1.1s1.6-0.4,1.6-1.1C179.7,2.2,178.8,0.1,174.3,0.1 M215.8,18c-1.7,0-3.9,2.1-5.1,3.8
			c-0.6,0.8-1.8,3-2.6,4.2c2.1,2.4,4.4,4.2,6.6,2.5l0.1,0.3c-2.5,2.3-6.3,2.3-8.7-0.1l0,0l0,0c0,0-0.1-0.2-0.2-0.2
			c-1.6,1.5-3.8,2.3-6,2.3c-6.5,0.3-8.2-3.9-8.2-6.5c0-3.6,3-5.3,4.8-5.9l0,0l0.6-0.1l0.4-0.1l-0.6-0.7c-1-1.1-1.7-2.5-1.7-4
			c-0.1-3,2.3-5.4,5.3-5.4h0.4c3.3,0,5.3,1.9,5.3,4.8c0,0.2,0,0.3,0,0.5c0,0.1,0,0.2,0,0.3c0,0,0,0,0,0.1c-0.1,0.4-0.2,0.7-0.4,1.1
			l0,0c0,0.1-0.1,0.2-0.1,0.3c-0.1,0.2-0.3,0.3-0.4,0.4c-1.1,1.1-2.4,1.9-3.9,2.2l1.4,1.8c1.8,2.4,3.2,4.1,5,6.3
			c0.2-0.2,0.3-0.4,0.4-0.7c1.2-2.2,1.8-4.7,2-7.2h5.6V18 M199.8,15.4c0.4,0.5,0.8,1,1.2,1.5c1.8-0.8,2.5-1.8,2.7-4.3
			c0-2-1.2-4.3-3.3-4.3h-0.3C198.3,8.6,196.5,11.3,199.8,15.4 M205.3,28.3c0.1-0.1,0.2-0.2,0.4-0.3l-0.1-0.1c-4.3-5.3-6.5-8-7.5-9.3
			c-0.4,0.2-0.8,0.5-1.2,0.8c-0.6,0.5-1,1.1-1.3,1.8l0,0l0,0c-0.2,0.6-0.3,1.3-0.3,2c0.2,1.8,1,3.4,2.2,4.7c1.7,1.9,4.5,2.3,6.7,1.1
			c0,0,0.1,0,0.1-0.1l0.3-0.2C204.9,28.6,205.1,28.4,205.3,28.3 M139.3,26.4c-1.1,1.8-3.2,4-7.8,4c-4.3,0-8.3-3.7-8.3-9.2
			c0-4.2,2.7-8.1,6.4-9.1l0,0c0.6-0.2,1.2-0.3,1.9-0.3h0.7h0.1c0.5,0,1.1,0.1,1.6,0.2l0,0c3.7,0.7,6.3,4,6.1,7.7v0.2h-12.8
			c0,0.6,0.1,1.7,0.2,2.5c0.5,3.8,3.1,7.2,6.4,7.2c1,0,2-0.3,2.8-0.9c0.7-0.6,1.2-1.3,1.6-2.1h1.1L139.3,26.4z M128.8,14.6
			c-0.6,1.4-0.9,2.9-1,4.4h8.5c0-2.8-1.1-6.5-4.3-6.5h-0.5C130.3,12.7,129.3,13.5,128.8,14.6 M159.6,26.5c-1.1,1.8-3.2,4-7.8,4
			c-4.3,0-8.3-3.7-8.3-9.2c0-4.2,2.7-8.1,6.4-9.1l0,0c0.6-0.2,1.2-0.3,1.9-0.3h0.7h0.1c0.5,0,1.1,0.1,1.6,0.2l0,0
			c3.7,0.7,6.2,4,6.1,7.7V20h-12.6c0,0.6,0.1,1.7,0.2,2.5c0.5,3.8,3.1,7.2,6.4,7.2c1,0,2-0.3,2.8-0.9c0.7-0.6,1.2-1.3,1.6-2.1
			L159.6,26.5L159.6,26.5z M149.3,14.6c-0.6,1.4-0.9,2.9-1,4.4h8.5c0-2.8-1.1-6.5-4.3-6.5H152C150.8,12.7,149.8,13.5,149.3,14.6
			 M312.6,26.4c-1.1,1.8-3.2,4-7.8,4c-4.3,0-8.3-3.7-8.3-9.2c0-4.2,2.7-8.2,6.4-9.2l0,0c0.6-0.2,1.2-0.2,1.8-0.3c0.2,0,0.5,0,0.7,0
			h0c0.5,0,1.1,0.1,1.6,0.2l0,0c3.7,0.7,6.2,3.9,6.1,7.7v0.2h-12.6c0,0.8,0.1,1.7,0.2,2.5c0.5,3.8,3.1,7.1,6.4,7.1
			c1,0,2-0.3,2.8-0.9c0.7-0.6,1.2-1.3,1.6-2.1L312.6,26.4L312.6,26.4z M302.3,14.5c-0.6,1.4-0.9,2.9-1,4.4h8.5
			c0-2.8-1.1-6.6-4.3-6.6H305C303.8,12.6,302.8,13.4,302.3,14.5 M290,14.8c1.3,1.8,2,4,2,6.2c0,5.5-3.7,9.4-8.4,9.4
			c-0.2,0-0.3,0-0.5,0c-0.6-0.1-1.3-0.2-1.9-0.4c-0.8-0.3-1.5-0.9-1.9-1.7v13.2h-5.9v-0.3c0.3,0,2.4-0.4,2.4-1.8v-26
			c0-0.4-0.3-0.6-0.7-0.6h0v-0.3h4.2v2.2c1.5-1.6,3.5-2.5,5.7-2.4C286.9,12.3,288.8,13.2,290,14.8 M282.6,29.4
			c3.9,0,5.8-4.5,5.8-8.5c0.1-2.1-0.6-4.1-1.8-5.8c-0.9-1.1-2.3-1.7-3.7-1.6c-1.3,0-3.7,1.4-3.7,3.5c0,0.2,0,0.4,0,0.6v8.4
			c0.1,0.4,0.1,0.7,0.3,1.1c0.3,1,1,1.8,2,2.2C281.8,29.3,282.2,29.4,282.6,29.4"/>
	</g>
</g>
</svg>
